<?xml version="1.0" encoding="utf-8"?>
<!-- Generator: Adobe Illustrator 23.0.0, SVG Export Plug-In . SVG Version: 6.00 Build 0)  -->
<svg version="1.1" id="图层_1" xmlns="http://www.w3.org/2000/svg" xmlns:xlink="http://www.w3.org/1999/xlink" x="0px" y="0px"
	 viewBox="0 0 1920 1080" style="enable-background:new 0 0 1920 1080;" xml:space="preserve">
<style type="text/css">
	.st0{fill:none;stroke:#000000;stroke-miterlimit:10;}
</style>
<path class="st0" d="M857.8,678.8c35,46.6,47.4,50.1,99.4,34.5c8.5-2.5,20.5-0.2,28.7,4c38.8,20.2,80.7,3.3,92.8-39.5
	c-14-12.3-26-20.1-41.7,1c-11.8,15.8-28.8,13.7-41.3-1.9c-9.3-11.5-16.9-24.3-25.6-37c-46.5,57.8-46.5,57.8-90,18.9
	C872.6,665.5,865.1,672.2,857.8,678.8z"/>
<path class="st0" d="M1245.1,499.9c-60.2-13.4-116.5-26-174.4-38.9c-5.8,27.5-10.6,50.3-15.5,73.9c61,10.3,118.3,20,177.3,29.9
	C1236.8,542.5,1240.6,523.1,1245.1,499.9z"/>
<path class="st0" d="M710.7,565.6c60.8-10.7,118.1-20.8,179-31.5c-4.4-22.8-8.4-43.6-12.6-65.3c-60.4,10.1-116.8,19.6-176.2,29.6
	C704.3,521.9,707.3,542.4,710.7,565.6z"/>
<path class="st0" d="M852.6,346.9c-48.6-0.1-97.3,0-145.9,0.4c-43.1,0.3-59.4,15.5-59.4,56.6c0,112.8,0.3,225.5,2.5,338.3
	c1.2,62.4,11.3,71.6,73.5,71.5c170.6-0.1,341.3-1.1,511.9-2.4c52.2-0.4,64.3-12.8,64.2-65.4c-0.3-114.7-1.3-229.4-2.4-344
	c-0.3-30.1-24.6-54.2-55.1-54.3c-88.7-0.3-177.4-0.1-266.1-0.1c0-0.1,0-0.2,0-0.3C934.6,347,893.6,346.9,852.6,346.9"/>
<path class="st0" d="M1230.8,898.8c-3.5,6.2-6.9,13-11.2,19.3c-20.5,30.7-60,31.1-77.5-1.3c-8.1-15.1-16.7-20.5-32.9-20.3
	c-92.5,1.3-185.1,1.4-277.6,3.6c-9.8,0.2-22.3,9-28.5,17.5c-12.4,16.8-26.7,31.4-47.3,23.9c-13.9-5.1-23.7-20.8-36.2-30.7
	c-7.2-5.7-16-12.9-24.3-13.4c-97.7-5.2-142.3-48.1-144.3-147.2c-2.3-117.6-2.2-235.3-0.3-352.9c1.3-78.4,59.7-132,137.5-132
	c47.8,0,95.6,0,149.1,0c-21.6-23.4-39.6-41.6-55.8-61.3c-7-8.4-13.7-19.7-14.3-30.1c-0.5-8.3,6.4-20.3,13.7-24.8
	c5.4-3.4,19.3-0.2,24.9,4.9c32.5,30.1,62.8,62.7,95.8,92.2c10.8,9.7,27.1,15.2,41.8,18.1c58.3,11.6,103.8-8.7,139.1-56.7
	c13.5-18.4,30.9-35.4,50-47.5c10.9-6.9,32.6-8.6,42.8-2.1c16.3,10.2,7.6,27-3.9,39.4c-19.4,20.7-38.9,41.3-62.6,66.5
	c53.7,0,101.5,0,149.4,0c67.8,0,118.1,40,127.5,107.8c6.3,45.6,6.2,92.2,6.7,138.4c0.9,84.9,0.6,169.7-0.2,254.6
	C1391.5,847.2,1324.5,902.8,1230.8,898.8z"/>
</svg>
