<?xml version="1.0" encoding="utf-8"?>
<!-- Generator: Adobe Illustrator 23.0.0, SVG Export Plug-In . SVG Version: 6.00 Build 0)  -->
<svg version="1.1" id="图层_1" xmlns="http://www.w3.org/2000/svg" xmlns:xlink="http://www.w3.org/1999/xlink" x="0px" y="0px"
	 viewBox="0 0 1920 1080" style="enable-background:new 0 0 1920 1080;" xml:space="preserve">
<path d="M 64.937136,96.532314 C 53.00702,92.532874 46.986004,82.257104 47.2117,66.281214 c 0.325443,-23.03654 13.76621,
    -40.09891 32.467956,-41.21643 9.369041,-0.55984 13.26678,0.53697 13.646487,3.84011 0.278292,2.42091 0.174099,
    2.48963 -2.302587,1.51859 -5.109057,-2.00312 -14.625606,1.06365 -20.99436,6.76557 -4.470477,4.0024 -10.034791,12.70351 -12.007976,
    18.77729 -1.842469,5.67141 -1.994643,15.01492 -0.336906,20.68604 1.723493,5.89607 7.611577,11.75155 12.998094,12.92611 7.583387,
    1.65361 18.483971,-1.03547 22.475115,-5.54443 1.616106,-1.82577 1.613736,-1.9885 -0.07097,-4.87707 -4.654705,-7.98091 -5.22284,
    -9.58121 -4.685392,-13.19761 1.722088,-11.5876 11.670559,-18.8207 20.767629,-15.09924 3.97293,1.62526 5.86955,4.33993 6.88018,
    9.84774 0.93176,5.07793 -1.63436,10.42098 -7.44065,15.49256 -2.73997,2.39326 -4.98176,5.12845 -4.98176,6.0782 0,2.39408 4.92999,
    6.40286 8.78309,7.1419 11.91966,2.28623 28.09427,-8.22413 35.06119,-22.78297 3.3578,-7.01684 4.2277,-19.74196 1.79482,
    -26.25507 -2.6474,-7.08739 -10.16999,-11.62858 -16.9623,-10.23969 -2.51996,0.51528 -2.88782,0.33263 -2.88782,-1.43385 0,
    -4.4066 12.36883,-5.45868 18.80909,-1.59989 4.27201,2.55964 8.92855,8.71393 10.62318,14.04004 1.42634,4.48292 1.4366,
    16.0508 0.0191,21.49448 -3.09149,11.87202 -14.81927,27.23104 -24.38564,31.93613 -6.97202,3.42909 -16.32989,3.69133 -22.7304,
    0.63698 -2.69536,-1.28624 -6.64611,-4.08542 -8.77946,-6.22039 -2.13335,-2.13498 -4.135931,-3.88178 -4.450181,-3.88178 -0.31424,
    0 -2.29897,1.43306 -4.410501,3.18458 -6.772155,5.6175 -13.238838,8.37559 -20.417772,8.70831 -3.545984,0.16435 -7.486091,
    -0.0494 -8.755794,-0.47511 z m 40.162274,-21.96268 c 7.56353,-7.12799 8.86615,-12.92935 4.01646,-17.88768 -2.34641,-2.39897 -3.27485,
    -2.76563 -5.73115,-2.26337 -8.777679,1.79486 -13.945699,16.19061 -7.996101,22.27348 2.69866,2.7591 5.084241,2.2377 9.710791,-2.12243 z"/>
</svg>
